<svg width="419" height="273" viewBox="0 0 419 273" fill="none" xmlns="http://www.w3.org/2000/svg">
<path d="M137 1L1 272H102.5L117.5 267L133 255.5L144 241.5L149.5 225.5L151 211H101L137.5 136L188 239.5L199 255.5L215.5 267L232.5 272H273L137 1Z" fill="url(#paint0_linear_1_7)" stroke="#FFA400" stroke-width="0.5"/>
<path d="M283 167V261L221 140.5V106.5H331.5H337L341 106L345 104.5L349 101.5L351.5 99.5L354 96.5L355.5 93L357 88.5V79.5L356 75.5L355 73.5L353 71L351.5 69L349 66L345.5 63.5L340 61.5H283H273L261.5 58L250 53L242 46.5L235.5 40L230 32L224.5 21.5L222 11.5V1L349 2L368 7.5L387.5 18.5L402 33.5L412.5 52.5L418 72V94L412.5 115.5L402 134L387.5 150L368 161.5L349 167H283Z" fill="url(#paint1_linear_1_7)" stroke="#004789" stroke-width="0.5" stroke-linejoin="round"/>
<defs>
<linearGradient id="paint0_linear_1_7" x1="137" y1="4.5" x2="143" y2="238" gradientUnits="userSpaceOnUse">
<stop stop-color="#FFC500"/>
<stop offset="1" stop-color="#FF9900"/>
</linearGradient>
<linearGradient id="paint1_linear_1_7" x1="319.5" y1="1" x2="319.5" y2="261" gradientUnits="userSpaceOnUse">
<stop stop-color="#0085FF"/>
<stop offset="1" stop-color="#001121"/>
</linearGradient>
</defs>
</svg>
